<?xml version="1.0" standalone="no"?><!DOCTYPE svg PUBLIC "-//W3C//DTD SVG 1.1//EN" "http://www.w3.org/Graphics/SVG/1.1/DTD/svg11.dtd"><svg t="1689225113356" class="icon" viewBox="0 0 1024 1024" version="1.1" xmlns="http://www.w3.org/2000/svg" p-id="6241" xmlns:xlink="http://www.w3.org/1999/xlink" width="200" height="200"><path d="M139.776 230.912m-53.76 0a53.76 53.76 0 1 0 107.52 0 53.76 53.76 0 1 0-107.52 0Z" fill="#1F88D9" p-id="6242"></path><path d="M366.592 269.312h571.392a38.4 38.4 0 0 0 0-76.8H366.592a38.4 38.4 0 0 0 0 76.8z" fill="#1F88D9" p-id="6243"></path><path d="M139.776 512m-53.76 0a53.76 53.76 0 1 0 107.52 0 53.76 53.76 0 1 0-107.52 0Z" fill="#1F88D9" p-id="6244"></path><path d="M937.984 473.6H366.592a38.4 38.4 0 0 0 0 76.8h571.392a38.4 38.4 0 0 0 0-76.8z" fill="#1F88D9" p-id="6245"></path><path d="M139.776 793.088m-53.76 0a53.76 53.76 0 1 0 107.52 0 53.76 53.76 0 1 0-107.52 0Z" fill="#1F88D9" p-id="6246"></path><path d="M937.984 754.688H366.592a38.4 38.4 0 0 0 0 76.8h571.392a38.4 38.4 0 0 0 0-76.8z" fill="#1F88D9" p-id="6247"></path></svg>