<?xml version="1.0" standalone="no"?><!DOCTYPE svg PUBLIC "-//W3C//DTD SVG 1.1//EN" "http://www.w3.org/Graphics/SVG/1.1/DTD/svg11.dtd"><svg t="1689910366370" class="icon" viewBox="0 0 1292 1024" version="1.1" xmlns="http://www.w3.org/2000/svg" p-id="9236" xmlns:xlink="http://www.w3.org/1999/xlink" width="252.34375" height="200"><path d="M1192.333763 0H99.918598A99.917961 99.917961 0 0 0 0.000636 100.236172V795.525171a99.917961 99.917961 0 0 0 99.917962 100.236171h1092.415165A100.236172 100.236172 0 0 0 1292.569934 795.525171V100.236172A100.236172 100.236172 0 0 0 1192.333763 0z m-122.829087 299.753884l-345.257924 275.25171-190.926041-203.654444-273.660659 266.660037a27.684276 27.684276 0 0 1-19.410814 7.637042 27.047856 27.047856 0 0 1-20.047234-9.228092 27.684276 27.684276 0 0 1 0-39.139839l313.436917-305.799875 195.062772 207.154754 305.481666-243.430702a28.320696 28.320696 0 0 1 39.139838 4.454941 28.002486 28.002486 0 0 1-3.818521 40.094468z" fill="#e6e6e6" p-id="9237"></path><path d="M277.479816 964.176507m25.775016 0l686.060907 0q25.775016 0 25.775016 25.775016l0 8.273461q0 25.775016-25.775016 25.775016l-686.060907 0q-25.775016 0-25.775016-25.775016l0-8.273461q0-25.775016 25.775016-25.775016Z" fill="#e6e6e6" p-id="9238"></path><path d="M613.509648 896.079553h64.914854v81.461777h-64.914854z" fill="#e6e6e6" p-id="9239"></path></svg>