<?xml version="1.0" standalone="no"?><!DOCTYPE svg PUBLIC "-//W3C//DTD SVG 1.1//EN" "http://www.w3.org/Graphics/SVG/1.1/DTD/svg11.dtd"><svg t="1689908956674" class="icon" viewBox="0 0 1024 1024" version="1.1" xmlns="http://www.w3.org/2000/svg" p-id="9101" xmlns:xlink="http://www.w3.org/1999/xlink" width="200" height="200"><path d="M510.554765 1021.109531H218.809185v-43.761837a43.761837 43.761837 0 0 1 43.761837-43.761837H510.554765V1021.109531zM1021.109531 729.36395a21.151555 21.151555 0 0 0-23.339647-17.504734 64.184028 64.184028 0 0 1-61.995936-32.092014 63.454664 63.454664 0 0 1 4.376184-72.936395A19.692827 19.692827 0 0 0 933.585857 583.49116a232.6671 232.6671 0 0 0-80.959399-47.408656 21.151555 21.151555 0 0 0-26.257102 10.940459 67.101483 67.101483 0 0 1-59.807844 38.656289 63.454664 63.454664 0 0 1-57.619752-38.656289 20.422191 20.422191 0 0 0-27.71583-10.940459A232.6671 232.6671 0 0 0 600.266531 583.49116a19.692827 19.692827 0 0 0-4.376183 27.71583 62.7253 62.7253 0 0 1 4.376183 72.936396 64.913392 64.913392 0 0 1-61.995936 32.092013 21.151555 21.151555 0 0 0-23.339646 17.504735 371.246251 371.246251 0 0 0-4.376184 46.679293 347.17724 347.17724 0 0 0 4.376184 47.408657 21.151555 21.151555 0 0 0 23.339646 16.775371 66.372119 66.372119 0 0 1 61.995936 32.092013 64.184028 64.184028 0 0 1-4.376183 72.936396 19.692827 19.692827 0 0 0 4.376183 27.71583 242.148832 242.148832 0 0 0 80.959399 43.761837 19.692827 19.692827 0 0 0 25.527738-10.94046 68.560211 68.560211 0 0 1 59.807844-37.926925 62.7253 62.7253 0 0 1 58.349116 37.926925 19.692827 19.692827 0 0 0 18.963463 13.128552 8.023003 8.023003 0 0 0 6.564275 0 242.148832 242.148832 0 0 0 80.959399-46.679293 19.692827 19.692827 0 0 0 4.376183-27.71583 64.184028 64.184028 0 0 1-4.376183-72.936395 66.372119 66.372119 0 0 1 61.995936-32.092014 21.151555 21.151555 0 0 0 23.339646-16.775371 382.18671 382.18671 0 0 0 4.376184-47.408657 333.319325 333.319325 0 0 0 0-50.326113z m-252.359927 132.014876a85.335582 85.335582 0 1 1 86.064946-85.335583 85.335582 85.335582 0 0 1-88.253038 86.79431z" fill="#FFFFFF" p-id="9102"></path><path d="M1021.109531 72.936395a72.936395 72.936395 0 0 0-72.936395-72.936395H72.936395a72.936395 72.936395 0 0 0-72.936395 72.936395v656.427555a72.936395 72.936395 0 0 0 72.936395 72.936396h247.983743a43.761837 43.761837 0 0 0 0-87.523675H87.523674V87.523674h846.062183v249.442471a43.761837 43.761837 0 0 0 87.523674 0z" fill="#FFFFFF" p-id="9103"></path><path d="M838.768543 255.277383v45.949929a72.936395 72.936395 0 0 1-85.335582 72.936395A334.048689 334.048689 0 0 0 692.895753 364.681975a327.484414 327.484414 0 0 0-305.603495 210.056818 72.936395 72.936395 0 0 1-67.101484 45.220565H255.277383a72.936395 72.936395 0 0 1-72.936395-72.936395v-291.74558a72.936395 72.936395 0 0 1 72.936395-72.936395h510.554765a72.936395 72.936395 0 0 1 72.936395 72.936395z" fill="#FFFFFF" p-id="9104"></path></svg>